HIERARCHY
ROOT hip
{
	OFFSET	0.00  0.00  0.00 
	CHANNELS 6 Xposition Yposition Zposition Xrotation Zrotation Yrotation
	JOINT waist
	{
		OFFSET	0.000000 2.191865 -0.079388
		CHANNELS 3 Xrotation Zrotation Yrotation
		JOINT abdomen
		{
			OFFSET	0.000000 2.770984 0.119082
			CHANNELS 3 Xrotation Zrotation Yrotation
			JOINT chest
			{
				OFFSET	0.000000 2.879627 -0.290598
				CHANNELS 3 Xrotation Zrotation Yrotation
				JOINT neck
				{
					OFFSET	0.000000 12.342733 -1.613748
					CHANNELS 3 Xrotation Zrotation Yrotation
					JOINT head
					{
						OFFSET	0.000000 4.485597 1.807195
						CHANNELS 3 Xrotation Zrotation Yrotation
						End Site
						{
							OFFSET 0.000000 7.191734 2.024398
						}
					}
				}
				JOINT lCollar
				{
					OFFSET	1.858774 10.237258 -1.915852
					CHANNELS 3 Zrotation Yrotation Xrotation
					JOINT lShldr
					{
						OFFSET	6.103279 0.000102 -0.038601
						CHANNELS 3 Zrotation Yrotation Xrotation
						JOINT lForeArm
						{
							OFFSET	10.574100 -0.365985 -0.655940
							CHANNELS 3 Zrotation Yrotation Xrotation
							JOINT lHand
							{
								OFFSET	13.213392 -0.641131 0.276866
								CHANNELS 3 Zrotation Yrotation Xrotation
								JOINT lThumb1
								{
									OFFSET	1.920964 -1.225712 1.722395
									CHANNELS 3 Zrotation Yrotation Xrotation
									JOINT lThumb2
									{
										OFFSET	0.248544 -0.143036 0.768265
										CHANNELS 3 Zrotation Yrotation Xrotation
										JOINT lThumb3
										{
											OFFSET	0.628484 -0.225174 0.508305
											CHANNELS 3 Zrotation Yrotation Xrotation
											End Site
											{
												OFFSET 0.831712 -0.207978 0.609962
											}
										}
									}
								}
								JOINT lIndex1
								{
									OFFSET	5.093442 -0.710319 1.829884
									CHANNELS 3 Zrotation Yrotation Xrotation
									JOINT lIndex2
									{
										OFFSET	0.889470 -0.051998 0.127073
										CHANNELS 3 Zrotation Yrotation Xrotation
										JOINT lIndex3
										{
											OFFSET	0.889570 -0.155981 0.127073
											CHANNELS 3 Zrotation Yrotation Xrotation
											End Site
											{
												OFFSET 0.797115 -0.294470 0.076252
											}
										}
									}
								}
								JOINT lMid1
								{
									OFFSET	5.154641 -0.519844 0.864111
									CHANNELS 3 Zrotation Yrotation Xrotation
									JOINT lMid2
									{
										OFFSET	0.928821 -0.051992 0.050831
										CHANNELS 3 Zrotation Yrotation Xrotation
										JOINT lMid3
										{
											OFFSET	0.984253 -0.311865 0.050831
											CHANNELS 3 Zrotation Yrotation Xrotation
											End Site
											{
												OFFSET 0.779717 -0.606438 -0.050831
											}
										}
									}
								}
								JOINT lRing1
								{
									OFFSET	4.924408 -0.754930 -0.235503
									CHANNELS 3 Zrotation Yrotation Xrotation
									JOINT lRing2
									{
										OFFSET	0.981624 -0.036924 -0.108278
										CHANNELS 3 Zrotation Yrotation Xrotation
										JOINT lRing3
										{
											OFFSET	0.805613 -0.205247 -0.041717
											CHANNELS 3 Zrotation Yrotation Xrotation
											End Site
											{
												OFFSET 0.667431 -0.470481 -0.035991
											}
										}
									}
								}
								JOINT lPinky1
								{
									OFFSET	4.535460 -0.816635 -1.006206
									CHANNELS 3 Zrotation Yrotation Xrotation
									JOINT lPinky2
									{
										OFFSET	0.690596 -0.064334 -0.168800
										CHANNELS 3 Zrotation Yrotation Xrotation
										JOINT lPinky3
										{
											OFFSET	0.598039 -0.111176 -0.071973
											CHANNELS 3 Zrotation Yrotation Xrotation
											End Site
											{
												OFFSET 0.422025 -0.290925 -0.035981
											}
										}
									}
								}
							}
						}
					}
				}
				JOINT rCollar
				{
					OFFSET	-1.858774 10.237258 -1.915852
					CHANNELS 3 Zrotation Yrotation Xrotation
					JOINT rShldr
					{
						OFFSET	-6.103279 0.000102 -0.038601
						CHANNELS 3 Zrotation Yrotation Xrotation
						JOINT rForeArm
						{
							OFFSET	-10.574100 -0.365985 -0.655940
							CHANNELS 3 Zrotation Yrotation Xrotation
							JOINT rHand
							{
								OFFSET	-13.213392 -0.641131 0.276866
								CHANNELS 3 Zrotation Yrotation Xrotation
								JOINT rIndex1
								{
									OFFSET	-5.093442 -0.710319 1.829884
									CHANNELS 3 Zrotation Yrotation Xrotation
									JOINT rIndex2
									{
										OFFSET	-0.889470 -0.051998 0.127073
										CHANNELS 3 Zrotation Yrotation Xrotation
										JOINT rIndex3
										{
											OFFSET	-0.889570 -0.155981 0.127073
											CHANNELS 3 Zrotation Yrotation Xrotation
											End Site
											{
												OFFSET -0.797115 -0.294470 0.076252
											}
										}
									}
								}
								JOINT rThumb1
								{
									OFFSET	-1.920964 -1.225712 1.722395
									CHANNELS 3 Zrotation Yrotation Xrotation
									JOINT rThumb2
									{
										OFFSET	-0.248544 -0.143036 0.768265
										CHANNELS 3 Zrotation Yrotation Xrotation
										JOINT rThumb3
										{
											OFFSET	-0.628484 -0.225174 0.508305
											CHANNELS 3 Zrotation Yrotation Xrotation
											End Site
											{
												OFFSET -0.831712 -0.207978 0.609962
											}
										}
									}
								}
								JOINT rMid1
								{
									OFFSET	-5.154641 -0.519844 0.864111
									CHANNELS 3 Zrotation Yrotation Xrotation
									JOINT rMid2
									{
										OFFSET	-0.928821 -0.051992 0.050831
										CHANNELS 3 Zrotation Yrotation Xrotation
										JOINT rMid3
										{
											OFFSET	-0.984253 -0.311865 0.050831
											CHANNELS 3 Zrotation Yrotation Xrotation
											End Site
											{
												OFFSET -0.779717 -0.606438 -0.050831
											}
										}
									}
								}
								JOINT rRing1
								{
									OFFSET	-4.924408 -0.754930 -0.235503
									CHANNELS 3 Zrotation Yrotation Xrotation
									JOINT rRing2
									{
										OFFSET	-0.981624 -0.036924 -0.108278
										CHANNELS 3 Zrotation Yrotation Xrotation
										JOINT rRing3
										{
											OFFSET	-0.805613 -0.205247 -0.041717
											CHANNELS 3 Zrotation Yrotation Xrotation
											End Site
											{
												OFFSET -0.667431 -0.470481 -0.035991
											}
										}
									}
								}
								JOINT rPinky1
								{
									OFFSET	-4.535460 -0.816635 -1.006206
									CHANNELS 3 Zrotation Yrotation Xrotation
									JOINT rPinky2
									{
										OFFSET	-0.690596 -0.064334 -0.168800
										CHANNELS 3 Zrotation Yrotation Xrotation
										JOINT rPinky3
										{
											OFFSET	-0.598039 -0.111176 -0.071973
											CHANNELS 3 Zrotation Yrotation Xrotation
											End Site
											{
												OFFSET -0.422025 -0.290925 -0.035981
											}
										}
									}
								}
							}
						}
					}
				}
			}
		}
	}
	JOINT lThigh
	{
		OFFSET	5.761895 -0.730553 0.000101
		CHANNELS 3 Xrotation Zrotation Yrotation
		JOINT lShin
		{
			OFFSET	-1.171020 -18.459274 1.627449
			CHANNELS 3 Xrotation Zrotation Yrotation
			JOINT lFoot
			{
				OFFSET	-0.883715 -16.872776 -3.357785
				CHANNELS 3 Xrotation Zrotation Yrotation
				JOINT lToe
				{
					OFFSET	1.287613 -2.778491 2.836049
					CHANNELS 3 Xrotation Yrotation Zrotation
					End Site
					{
						OFFSET 1.362641 -0.436631 3.828194
					}
				}
			}
		}
	}
	JOINT rThigh
	{
		OFFSET	-5.761895 -0.730553 0.000101
		CHANNELS 3 Xrotation Zrotation Yrotation
		JOINT rShin
		{
			OFFSET	1.171020 -18.459274 1.627449
			CHANNELS 3 Xrotation Zrotation Yrotation
			JOINT rFoot
			{
				OFFSET	0.883715 -16.872776 -3.357785
				CHANNELS 3 Xrotation Zrotation Yrotation
				JOINT rToe
				{
					OFFSET	-1.287613 -2.778491 2.836049
					CHANNELS 3 Xrotation Yrotation Zrotation
					End Site
					{
						OFFSET -1.362641 -0.436631 3.828194
					}
				}
			}
		}
	}
}
MOTION
Frames:     4
Frame Time: 0.033333
0.000000 40.137459 -0.646068 35.185547 -1.014010 0.977798 8.574216 -0.077636 0.013098 18.372530 2.750079 3.958570 9.459965 0.149506 0.876758 -0.614120 -2.314196 0.553927 -9.455185 -7.815056 3.419446 -1.325458 -9.372282 -9.167939 -76.793610 11.896170 4.086541 43.887669 -13.851406 -61.493202 6.839970 1.381397 5.084723 -32.282310 -1.586825 34.965054 5.578798 -25.849794 -11.298744 0.897374 7.693593 1.397416 -72.203171 -31.742907 16.552210 -3.206919 11.646332 2.234528 2.845780 11.076338 3.764095 -23.709398 -5.791990 0.056168 -41.424686 0.779755 1.499791 18.523773 6.805951 6.651672 -29.785032 -18.997177 -12.333088 -43.271389 12.248290 3.516865 20.574766 6.444580 20.771200 -15.314518 -23.857466 -14.933778 -60.112572 11.714683 7.715322 7.106576 8.756349 6.339532 -3.263910 -0.401769 -5.116088 89.597321 22.331213 27.739269 -51.276333 6.731331 -66.199203 13.518586 -7.526550 2.087987 43.690777 2.347808 -9.249866 4.041570 -10.865696 2.551106 1.207295 -14.330606 5.441584 10.633308 -11.859677 47.292122 -9.950122 23.694529 -8.477738 1.522657 -10.680075 4.362179 43.716862 -5.876490 -5.864358 -5.191558 -20.199486 5.723882 -12.067315 -14.801036 7.001565 48.268673 2.838095 -13.373288 -6.314643 -23.983356 1.812346 -17.706150 -9.966200 6.468655 36.624073 10.437663 -15.719028 -1.458723 -24.456184 4.550380 20.572388 -1.112364 -1.816815 -57.274849 3.381143 -8.262766 35.600368 -15.122735 -1.721487 3.577411 -0.271792 2.083822 9.702995 -0.269013 -2.980394 -38.514378 3.337710 16.484434 47.822853 25.690865 5.545545 29.825024 13.541891 -9.982008 -12.434110 0.571080 -5.677141 
0.000000 40.137459 -0.646068 35.146473 -0.974873 0.978639 8.515622 -0.077636 0.013098 16.113590 2.894405 3.449560 5.751593 0.501506 -0.014070 0.150528 -2.122116 0.508108 -9.733424 -7.500159 3.744125 -1.178965 -8.756944 -9.234821 -76.339348 9.476913 5.843301 43.415501 -13.796636 -59.004395 8.576276 1.219061 5.319129 -37.054527 2.605623 34.810551 9.795635 -27.358599 -14.531735 1.283573 7.228827 1.112322 -8.190825 -3.168082 12.463643 -62.090950 -24.528780 3.207419 5.554070 7.677030 2.154698 -15.809595 -11.862444 2.257013 -48.829536 -0.777240 1.705427 16.236801 6.457929 6.136062 -25.994610 -25.914747 -6.767574 -47.662403 8.857202 2.866509 18.488230 5.890722 19.688301 -9.332562 -31.410393 -13.564943 -65.047668 9.169562 6.924779 5.443376 6.009065 4.681067 -3.054247 -0.860404 -4.355591 88.226433 19.968552 28.707541 -50.883457 7.253776 -62.255470 11.861311 -7.868313 2.019252 41.099606 4.179861 -6.567087 4.646007 -11.506495 2.259412 1.792602 -13.745179 5.217224 10.839172 -15.982362 45.214638 -11.684866 23.813177 -9.858543 1.158154 -10.114345 3.949810 40.983376 -4.131259 -3.107236 -2.950021 -20.363888 6.154994 -10.695740 -13.900096 6.529506 45.786446 4.167099 -10.189091 -3.547086 -24.123632 2.566353 -16.923504 -9.141891 6.763212 34.725098 12.565633 -14.763322 0.424659 -26.330498 5.442332 20.282749 -0.388733 -2.035254 -55.268097 3.532295 -8.350380 36.090122 -15.772142 -1.617045 4.395784 -1.229276 1.905791 11.698529 0.239472 -3.589809 -41.194374 2.626084 15.890871 53.584835 27.379124 7.464797 0.486583 -16.953657 -1.918722 -12.787543 2.023012 -5.426008 
0.000000 40.137459 -0.646068 34.902328 -0.905466 0.921290 8.232419 -0.067879 0.012680 13.892734 2.927585 2.790249 1.078900 0.757690 -0.553068 0.914802 -1.939088 0.465929 -10.011389 -7.185288 4.070168 -1.042201 -8.151379 -9.301764 -75.935677 6.872936 7.847066 42.240005 -13.857751 -56.742512 10.293376 1.058808 5.554844 -32.645401 1.803295 36.837265 7.681427 -26.370300 -12.401277 0.667936 7.861512 1.677727 -14.996033 -0.952839 11.513545 -54.654701 -20.150675 2.905258 5.016531 8.570473 2.571520 -73.146744 -26.279535 2.290960 5.892469 24.946602 7.949097 19.438824 8.064747 7.141455 -29.827681 -20.930851 -9.601918 -43.084427 13.575743 3.435045 19.351480 6.748052 19.123695 -14.409387 -25.524197 -13.761390 -60.528725 12.530561 6.664854 7.454413 8.367722 6.135649 -2.844676 -1.319103 -3.614556 86.642883 17.580284 29.809704 -49.876347 7.986810 -58.968830 10.234204 -8.213631 1.941917 38.531654 -0.850130 -8.273247 5.202765 -12.491700 2.731350 1.369481 -13.602373 5.040655 5.010896 -12.734037 48.743507 -7.333387 21.488211 -6.581325 1.927214 -10.706849 4.735402 41.041790 -8.505146 -7.318799 -4.750774 -21.884914 6.013885 -12.170860 -13.835511 6.567459 45.011852 -0.264993 -15.337633 -5.295589 -25.321703 2.513846 -18.276844 -9.175062 7.752766 34.307522 6.957501 -15.543243 0.837825 -27.162788 5.868219 20.333601 -0.894998 -2.033493 -52.892864 3.383651 -8.376051 36.276592 -15.920399 -1.544443 10.667978 -2.698412 0.195770 12.042253 0.583935 -3.785297 -45.036072 1.213395 15.024920 58.096062 28.754730 9.051466 -27.905565 -45.414303 8.204344 -13.141111 3.484097 -5.162543 
0.000000 40.137459 -0.646068 34.511707 -0.806061 0.825414 7.763671 -0.058122 0.012263 11.816318 2.850319 2.030895 -4.137517 0.902932 -0.765612 1.659314 -1.756057 0.423743 -10.279509 -6.873081 4.385682 -0.905348 -7.555570 -9.378476 -75.571999 4.182099 9.958371 40.583565 -14.145389 -54.532742 11.990940 0.901795 5.782085 -34.752235 -0.250582 33.528564 10.811193 -26.737179 -14.216093 0.822258 7.667700 1.548892 -12.387464 -2.103640 9.721313 -55.656673 -23.379026 2.467954 4.986926 8.042218 2.308197 -71.177177 -31.317188 2.858599 5.676234 23.929735 7.537316 18.381605 8.763580 7.106740 -29.268383 -21.888540 -7.808517 -40.665359 8.465136 1.709543 18.777550 6.023404 17.188885 -13.316423 -26.215958 -12.870584 -56.172447 8.178061 5.185169 7.058321 7.160266 5.204868 -2.644850 -1.777855 -2.873762 84.950417 15.305847 30.986210 -48.422134 9.009624 -56.108780 8.626734 -8.559896 1.873532 38.117523 3.915923 -6.669604 4.846532 -11.380255 2.500996 2.058876 -12.549623 4.758921 5.480489 -12.196162 41.900703 -6.625691 21.567017 -6.529930 1.555598 -10.445946 4.292038 41.125896 -3.546562 -7.298029 -3.838123 -20.586830 5.632109 -11.454095 -12.816434 6.271347 45.812637 4.516088 -15.902389 -5.034413 -23.917973 2.715900 -18.299038 -8.428675 8.740638 35.345764 11.952096 -17.270029 1.600341 -27.601494 6.839593 20.021606 -0.339994 -2.288403 -50.438370 3.010634 -8.359095 36.336224 -15.681505 -1.704203 16.250002 -3.889258 -1.362656 11.128348 0.863459 -3.611467 -49.202126 -0.708097 14.102832 60.760780 29.721840 10.045220 -35.522659 -54.795952 13.945907 -13.492108 4.945346 -4.896719 
